<?xml version="1.0" encoding="UTF-8" standalone="no"?>
<!DOCTYPE svg PUBLIC "-//W3C//DTD SVG 1.1//EN"
 "http://www.w3.org/Graphics/SVG/1.1/DTD/svg11.dtd">
<!-- Generated by graphviz version 14.1.2 (20260124.0452)
 -->
<!-- Title: G Pages: 1 -->
<svg width="842pt" height="760pt"
 viewBox="0.00 0.00 842.00 760.00" xmlns="http://www.w3.org/2000/svg" xmlns:xlink="http://www.w3.org/1999/xlink">
<g id="graph0" class="graph" transform="scale(2 2) rotate(0) translate(11.52 368.29)">
<title>G</title>
<polygon fill="white" stroke="none" points="-11.52,11.52 -11.52,-368.29 409.43,-368.29 409.43,11.52 -11.52,11.52"/>
<!-- api -->
<g id="node1" class="node">
<title>api</title>
<path fill="#eaf2f8" stroke="#5b7c99" d="M152.16,-354.38C152.16,-354.38 12,-354.38 12,-354.38 6,-354.38 0,-348.38 0,-342.38 0,-342.38 0,-330.38 0,-330.38 0,-324.38 6,-318.38 12,-318.38 12,-318.38 152.16,-318.38 152.16,-318.38 158.16,-318.38 164.16,-324.38 164.16,-330.38 164.16,-330.38 164.16,-342.38 164.16,-342.38 164.16,-348.38 158.16,-354.38 152.16,-354.38"/>
<text xml:space="preserve" text-anchor="middle" x="82.08" y="-337.58" font-family="SimSun" font-size="9.00" fill="#17202a">API层（app/api）</text>
<text xml:space="preserve" text-anchor="middle" x="82.08" y="-327.83" font-family="SimSun" font-size="9.00" fill="#17202a">路由、依赖注入、状态码与响应封装</text>
</g>
<!-- schema -->
<g id="node2" class="node">
<title>schema</title>
<path fill="#f7f8fa" stroke="#465563" d="M144.66,-273C144.66,-273 13.5,-273 13.5,-273 7.5,-273 1.5,-267 1.5,-261 1.5,-261 1.5,-249 1.5,-249 1.5,-243 7.5,-237 13.5,-237 13.5,-237 144.66,-237 144.66,-237 150.66,-237 156.66,-243 156.66,-249 156.66,-249 156.66,-261 156.66,-261 156.66,-267 150.66,-273 144.66,-273"/>
<text xml:space="preserve" text-anchor="middle" x="79.08" y="-256.2" font-family="SimSun" font-size="9.00" fill="#17202a">Schema层（app/schemas）</text>
<text xml:space="preserve" text-anchor="middle" x="79.08" y="-246.45" font-family="SimSun" font-size="9.00" fill="#17202a">请求／响应模型、类型与字段约束</text>
</g>
<!-- api&#45;&gt;schema -->
<g id="edge1" class="edge">
<title>api&#45;&gt;schema</title>
<path fill="none" stroke="#53616e" stroke-width="0.9" d="M79.08,-317.92C79.08,-317.92 79.08,-281.56 79.08,-281.56"/>
<polygon fill="#53616e" stroke="#53616e" stroke-width="0.9" points="81.46,-281.56 79.08,-274.76 76.7,-281.56 81.46,-281.56"/>
<text xml:space="preserve" text-anchor="middle" x="116.2" y="-291.4" font-family="SimSun" font-size="8.00" fill="#37434f">校验输入／声明输出</text>
</g>
<!-- service -->
<g id="node3" class="node">
<title>service</title>
<path fill="#f7f8fa" stroke="#465563" d="M363.91,-273C363.91,-273 192.25,-273 192.25,-273 186.25,-273 180.25,-267 180.25,-261 180.25,-261 180.25,-249 180.25,-249 180.25,-243 186.25,-237 192.25,-237 192.25,-237 363.91,-237 363.91,-237 369.91,-237 375.91,-243 375.91,-249 375.91,-249 375.91,-261 375.91,-261 375.91,-267 369.91,-273 363.91,-273"/>
<text xml:space="preserve" text-anchor="middle" x="278.08" y="-256.2" font-family="SimSun" font-size="9.00" fill="#17202a">Service层（app/services）</text>
<text xml:space="preserve" text-anchor="middle" x="278.08" y="-246.45" font-family="SimSun" font-size="9.00" fill="#17202a">业务编排、RAG、评分、外部服务与补偿逻辑</text>
</g>
<!-- api&#45;&gt;service -->
<g id="edge2" class="edge">
<title>api&#45;&gt;service</title>
<path fill="none" stroke="#53616e" stroke-width="0.9" d="M160.41,-317.92C160.41,-293.91 160.41,-255 160.41,-255 160.41,-255 171.68,-255 171.68,-255"/>
<polygon fill="#53616e" stroke="#53616e" stroke-width="0.9" points="171.68,-257.38 178.48,-255 171.68,-252.62 171.68,-257.38"/>
<text xml:space="preserve" text-anchor="middle" x="214.83" y="-291.4" font-family="SimSun" font-size="8.00" fill="#37434f">调用用例服务</text>
</g>
<!-- crud -->
<g id="node4" class="node">
<title>crud</title>
<path fill="#f7f8fa" stroke="#465563" d="M253.16,-194C253.16,-194 131,-194 131,-194 125,-194 119,-188 119,-182 119,-182 119,-170 119,-170 119,-164 125,-158 131,-158 131,-158 253.16,-158 253.16,-158 259.16,-158 265.16,-164 265.16,-170 265.16,-170 265.16,-182 265.16,-182 265.16,-188 259.16,-194 253.16,-194"/>
<text xml:space="preserve" text-anchor="middle" x="192.08" y="-177.2" font-family="SimSun" font-size="9.00" fill="#17202a">CRUD层（app/crud）</text>
<text xml:space="preserve" text-anchor="middle" x="192.08" y="-167.45" font-family="SimSun" font-size="9.00" fill="#17202a">查询、分页、持久化与事务边界</text>
</g>
<!-- service&#45;&gt;crud -->
<g id="edge3" class="edge">
<title>service&#45;&gt;crud</title>
<path fill="none" stroke="#53616e" stroke-width="0.9" d="M222.7,-236.68C222.7,-236.68 222.7,-202.66 222.7,-202.66"/>
<polygon fill="#53616e" stroke="#53616e" stroke-width="0.9" points="225.09,-202.66 222.71,-195.86 220.33,-202.66 225.09,-202.66"/>
<text xml:space="preserve" text-anchor="middle" x="239.83" y="-212.4" font-family="SimSun" font-size="8.00" fill="#37434f">组织数据访问</text>
</g>
<!-- storage -->
<g id="node6" class="node">
<title>storage</title>
<polygon fill="#f2f5f7" stroke="#465563" points="315.91,-36 178.25,-36 174.25,-32 174.25,0 311.91,0 315.91,-4 315.91,-36"/>
<polyline fill="none" stroke="#465563" points="311.91,-32 174.25,-32"/>
<polyline fill="none" stroke="#465563" points="311.91,-32 311.91,0"/>
<polyline fill="none" stroke="#465563" points="311.91,-32 315.91,-36"/>
<text xml:space="preserve" text-anchor="middle" x="245.08" y="-19.2" font-family="SimSun" font-size="9.00" fill="#17202a">数据存储层</text>
<text xml:space="preserve" text-anchor="middle" x="245.08" y="-9.45" font-family="SimSun" font-size="9.00" fill="#17202a">MySQL｜Chroma｜报告文件目录</text>
</g>
<!-- service&#45;&gt;storage -->
<g id="edge6" class="edge">
<title>service&#45;&gt;storage</title>
<path fill="none" stroke="#53616e" stroke-width="0.9" stroke-dasharray="5,2" d="M291.53,-236.8C291.53,-236.8 291.53,-44.43 291.53,-44.43"/>
<polygon fill="#53616e" stroke="#53616e" stroke-width="0.9" points="293.92,-44.43 291.54,-37.63 289.16,-44.43 293.92,-44.43"/>
<text xml:space="preserve" text-anchor="middle" x="332.95" y="-133.4" font-family="SimSun" font-size="8.00" fill="#37434f">向量与文件服务</text>
</g>
<!-- model -->
<g id="node5" class="node">
<title>model</title>
<path fill="#f7f8fa" stroke="#465563" d="M255.16,-115C255.16,-115 115,-115 115,-115 109,-115 103,-109 103,-103 103,-103 103,-91 103,-91 103,-85 109,-79 115,-79 115,-79 255.16,-79 255.16,-79 261.16,-79 267.16,-85 267.16,-91 267.16,-91 267.16,-103 267.16,-103 267.16,-109 261.16,-115 255.16,-115"/>
<text xml:space="preserve" text-anchor="middle" x="185.08" y="-98.2" font-family="SimSun" font-size="9.00" fill="#17202a">Model层（app/models）</text>
<text xml:space="preserve" text-anchor="middle" x="185.08" y="-88.45" font-family="SimSun" font-size="9.00" fill="#17202a">SQLAlchemy实体、主外键与级联关系</text>
</g>
<!-- crud&#45;&gt;model -->
<g id="edge4" class="edge">
<title>crud&#45;&gt;model</title>
<path fill="none" stroke="#53616e" stroke-width="0.9" d="M192.08,-157.68C192.08,-157.68 192.08,-123.66 192.08,-123.66"/>
<polygon fill="#53616e" stroke="#53616e" stroke-width="0.9" points="194.46,-123.66 192.08,-116.86 189.7,-123.66 194.46,-123.66"/>
<text xml:space="preserve" text-anchor="middle" x="205.58" y="-133.4" font-family="SimSun" font-size="8.00" fill="#37434f">操作实体</text>
</g>
<!-- model&#45;&gt;storage -->
<g id="edge5" class="edge">
<title>model&#45;&gt;storage</title>
<path fill="none" stroke="#53616e" stroke-width="0.9" d="M220.7,-78.68C220.7,-78.68 220.7,-44.66 220.7,-44.66"/>
<polygon fill="#53616e" stroke="#53616e" stroke-width="0.9" points="223.09,-44.66 220.71,-37.86 218.33,-44.66 223.09,-44.66"/>
<text xml:space="preserve" text-anchor="middle" x="235.83" y="-54.4" font-family="SimSun" font-size="8.00" fill="#37434f">映射／持久化</text>
</g>
<!-- core -->
<g id="node7" class="node">
<title>core</title>
<path fill="#fafafa" stroke="#465563" stroke-dasharray="5,2" d="M385.91,-356.77C385.91,-356.77 250.25,-356.77 250.25,-356.77 244.25,-356.77 238.25,-350.77 238.25,-344.77 238.25,-344.77 238.25,-328 238.25,-328 238.25,-322 244.25,-316 250.25,-316 250.25,-316 385.91,-316 385.91,-316 391.91,-316 397.91,-322 397.91,-328 397.91,-328 397.91,-344.77 397.91,-344.77 397.91,-350.77 391.91,-356.77 385.91,-356.77"/>
<text xml:space="preserve" text-anchor="middle" x="318.08" y="-342.46" font-family="SimSun" font-size="9.00" fill="#17202a">Core横向基础设施</text>
<text xml:space="preserve" text-anchor="middle" x="318.08" y="-332.71" font-family="SimSun" font-size="9.00" fill="#17202a">配置｜JWT与角色校验｜数据库会话</text>
<text xml:space="preserve" text-anchor="middle" x="318.08" y="-322.96" font-family="SimSun" font-size="9.00" fill="#17202a">限流｜调度器｜全局异常处理</text>
</g>
<!-- core&#45;&gt;api -->
<g id="edge7" class="edge">
<title>core&#45;&gt;api</title>
<path fill="none" stroke="#53616e" stroke-width="0.9" stroke-dasharray="5,2" d="M237.85,-342C237.85,-342 172.66,-342 172.66,-342"/>
<polygon fill="#53616e" stroke="#53616e" stroke-width="0.9" points="172.66,-339.62 165.86,-342 172.66,-344.38 172.66,-339.62"/>
</g>
<!-- core&#45;&gt;service -->
<g id="edge8" class="edge">
<title>core&#45;&gt;service</title>
<path fill="none" stroke="#53616e" stroke-width="0.9" stroke-dasharray="5,2" d="M307.08,-315.85C307.08,-315.85 307.08,-281.47 307.08,-281.47"/>
<polygon fill="#53616e" stroke="#53616e" stroke-width="0.9" points="309.46,-281.47 307.08,-274.67 304.7,-281.47 309.46,-281.47"/>
<text xml:space="preserve" text-anchor="middle" x="293.7" y="-291.4" font-family="SimSun" font-size="8.00" fill="#37434f">配置与调度</text>
</g>
<!-- core&#45;&gt;crud -->
<g id="edge9" class="edge">
<title>core&#45;&gt;crud</title>
<path fill="none" stroke="#53616e" stroke-width="0.9" stroke-dasharray="5,2" d="M237.89,-330C203.99,-330 172.2,-330 172.2,-330 172.2,-330 172.2,-202.43 172.2,-202.43"/>
<polygon fill="#53616e" stroke="#53616e" stroke-width="0.9" points="174.59,-202.43 172.21,-195.63 169.83,-202.43 174.59,-202.43"/>
</g>
</g>
</svg>
